<?xml version="1.0" encoding="UTF-8"?>
<svg id="a" data-name="Layer 1" xmlns="http://www.w3.org/2000/svg" width="600" height="600" viewBox="0 0 600 600">
  <g>
    <path d="M358.987,303.438c4.099,3.683,2.782,8.623,2.818,13.128,.031,3.804,.903,4.379,4.43,2.762,17.991-8.248,34.685-.276,40.176,18.978,1.698,4.822,1.705,9.644,.003,14.466l.008-.033c-1.551,8.657-5.715,16.047-11.312,22.649-1.617,1.907-3.167,3.954-5.211,5.49-11.797,10.963-24.962,19.745-40.24,25.118-1.852,.651-2.876,1.957-3.695,3.57-8.088,15.942-21.377,24.447-38.764,27.014-14.164,2.091-28.281,2.086-42.29-1.265-5.399-1.315-10.614-3.11-15.447-5.906-12.566-9.38-19.009-22.751-23.956-37.035-1.627-4.697-2.769-9.562-4.132-14.35-1.803-4.654-2.178-9.64-2.938-14.477-2.806-17.856-3.596-35.84-2.48-53.907,.355-5.746,1.357-7.011,7.146-7.218,1.29-.046,2.56-.298,3.846-.337-.416-1.358-2.227-1.647-2.715-3.463,3.01-.751,6.308-.686,8.941-2.472,2.87-1.946,6.438-3.634,4.601-8.257-3.232-4.651-8.325-6.259-13.297-7.928-8.516-2.86-16.007-7.144-21.475-14.479-1.504-2.25-3.094-4.412-3.518-7.238-.79-5.269-.3-6.281,4.829-6.122,4.649,.144,8.931,.054,12.497,4.029-1.103-1.964-2.452-2.833-3.581-3.913-1.154-1.104-2.166-2.358-3.517-3.248-4.442-2.631-9.452-3.026-14.4-3.687-3.513-.469-7.09-.718-10.508-1.582-5.722-1.446-7.038-6.926-2.885-11.124,4.338-4.385,12.728-4.735,19.434-.909,5.599,3.194,9.752,7.781,13.415,13.006,7.833,11.171,17.61,20.13,30.493,25.167,11.104,4.341,23.164,.464,29.222-9.72-2.965,1.716-5.273,3.14-7.662,4.409-2.249,1.195-3.164,.588-3.011-2.122,.462-8.197,.396-8.231-7.224-11.175-3.911-1.511-7.785-3.056-11.279-5.439-3.208-2.189-5.267-4.978-4.053-8.971,1.222-4.02,4.698-4.402,8.248-4.344,6.606,.106,12.614,2.417,18.535,5.036,11.497,5.086,20.55,2.73,27.993-7.453,1.595-2.182,3.151-4.466,3.846-7.168,2.66-7.183,2.6-14.267-.14-21.495-1.334-3.518-.448-7.001,2.666-9.539,1.4-1.141,2.901-1.168,4.443-.157,3.439,2.255,4.404,5.604,3.414,9.271-1.619,5.998-1.519,11.973-.716,18.019l-.049,.027c1.864,6.525,5.51,11.626,11.728,14.667,.672,.368,1.23,.952,2.065,1.062,.166-.983-.817-1.169-1.216-1.756-.908-2.789-5.393-4.812-1.842-8.554,5.11-1.139,9.973-2.94,14.587-5.415,7.228-3.729,12.44-8.832,13.565-17.497,.595-4.586,2.751-8.778,8.074-9.706,4.977-.868,8.827,1.188,11.568,5.305,2.957,4.442,2.816,9.117,.419,13.687-2.567,4.895-7.464,6.937-12.111,9.133-10.141,4.793-17.181,12.295-20.725,23.014-3.041,9.195,.628,14.826,10.179,15.658,4.661,.406,9.334,.923,13.554,3.205,4.302,2.327,6.024,6.364,4.347,10.017-1.726,3.761-5.796,5.261-10.317,3.741-4.651-1.563-8.534-4.458-12.525-7.197-2.619-1.797-5.475-4.185-8.709-1.487-3.17,2.645-2.279,6.133-.916,9.364,1.706,4.043,4.113,7.651,7.403,10.616,4.947,4.357,9.911,8.707,16.195,11.087,2.736,1.036,.988,2.144,.055,3.002-1.741,1.602-4.315,1.026-6.762,2.304-.13,.045,.607,.657,.288,.095-.08-.141,.038-.242,.34-.345,3.468-1.186,6.892-1.286,10.247,.398Z" fill="#161616"/>
    <path d="M166.324,237.503c-2.446-.343-4.743-.941-4.53-3.208,.318-3.4,3.209-4.616,6.243-4.704,2.242-.065,4.263,1.134,4.012,3.715-.352,3.612-3.683,3.352-5.725,4.197Z" fill="#232323"/>
    <path d="M389.899,380.878c7.167-8.405,13.442-17.333,16.523-28.138,.779,6.401-2.858,11.411-5.813,16.357-2.698,4.517-5.289,9.557-10.71,11.781Z" fill="#d3d3d3"/>
    <path d="M303.183,182.692c-1.791-.491-3.33-1.292-3.051-3.512,.202-1.609,1.302-2.721,2.915-2.429,1.641,.297,2.824,1.528,2.824,3.342,0,1.643-.868,2.655-2.687,2.598Z" fill="#121212"/>
    <path d="M377.82,273.297c-.463,1.488-.807,3.157-2.804,3.277-1.833,.111-3.247-.836-3.14-2.698,.094-1.637,1.325-2.834,3.105-3.038,1.744-.2,2.618,.742,2.839,2.458Z" fill="#131313"/>
    <path d="M406.413,352.772c0-4.822-.002-9.644-.003-14.466,2.998,3.268,3,11.211,.003,14.466Z" fill="#d3d3d3"/>
    <path d="M249.463,429.408c5.149,1.969,10.298,3.937,15.447,5.906-5.873-.076-10.948-2.237-15.447-5.906Z" fill="#818181"/>
    <path d="M233.347,237.163c1.003,.297,2.24,.627,2.133,1.911-.081,.971-1.168,1.496-2.132,1.372-.914-.117-2.017-.652-2.034-1.627-.016-.981,1.02-1.45,2.033-1.656Z" fill="#393939"/>
    <path d="M394.931,344.961c-.352,7.012-4.031,14.381-9.587,20.93-6.914,8.15-15.514,13.985-25.303,18.116-1.084,.458-2.316,1.618-3.554,.506-1.017-.914-.221-2.128-.046-3.199,1.876-11.466,3.577-22.944,4.468-34.548,.708-9.221,9.397-17.855,18.574-19.082,8.803-1.177,15.612,5.658,15.448,17.278Z" fill="#fdfdfd"/>
    <path d="M283.732,267.463c.555-2.367,1.849-4.908,4.942-5.14,2.181-.163,3.483,1.739,3.102,3.924-.518,2.968-2.028,5.733-5.31,5.898-2.183,.11-2.973-2.05-2.734-4.683Z" fill="#e4e4e4"/>
    <path d="M351.261,216.139c-1.857,4.696-4.876,6.818-8.683,8.082-.842,.28-1.626,.283-2.118-.535-.451-.751-.413-1.502,.334-2.145,2.882-2.481,5.904-4.651,10.468-5.402Z" fill="#d4d4d4"/>
    <path d="M296.913,237.862c.555-1.785,1.442-3.447,3.498-3.209,2.002,.232,3.533,1.555,3.468,3.807-.053,1.821-1.294,3.009-3.06,2.919-2.056-.105-3.415-1.41-3.906-3.517Z" fill="#9a9a9a"/>
    <path d="M355.349,196.243c1.482,.032,1.835,1.14,1.885,2.234,.058,1.248-.058,2.729-1.702,2.892-1.508,.149-2.317-.873-2.323-2.345-.006-1.418,.849-2.289,2.14-2.781Z" fill="#777877"/>
    <path d="M308.273,234.895c-.037,1.194-.672,1.672-1.514,1.659-1.328-.021-2.573-.385-2.667-2.037-.051-.905,.515-1.509,1.409-1.565,1.515-.096,2.162,1.035,2.771,1.943Z" fill="#aaa"/>
    <path d="M331.29,229.797c-1.073-.05-1.861-.531-1.792-1.667,.084-1.379,1.198-1.691,2.336-1.768,.943-.064,1.48,.586,1.519,1.406,.062,1.336-.846,1.885-2.062,2.029Z" fill="#aaa"/>
    <path d="M352.996,263.896c.073,1.176-.668,1.696-1.647,1.955-1.09,.288-1.904-.132-2.072-1.254-.165-1.1,.546-1.799,1.56-1.999,1.026-.203,1.854,.18,2.159,1.298Z" fill="#b4b3b3"/>
    <path d="M209.469,261.479c4.371-.812,5.908,.724,5.236,5.232-.193-.083-.386-.166-.58-.247-1.329-1.312-2.463-2.825-4.017-3.91-.295-.309-.51-.667-.639-1.074Z" fill="#8c8c8c"/>
    <path d="M214.706,266.711c-1.766,1.903-3.394,.983-4.819-.387-1.473-1.417-2.172-3.069-.418-4.845,.189,.187,.377,.375,.564,.564,1.058,1.704,2.448,3.076,4.14,4.147,.179,.172,.356,.346,.532,.52Z" fill="#8c8c8c"/>
    <path d="M257.813,321.679c-1.189,.064-1.33-.86-1.335-1.842-.005-.935,.003-2.166,1.09-2.266,1.18-.109,2.019,.865,1.994,2.101-.019,.939-.434,1.833-1.748,2.007Z" fill="#29292a"/>
    <path d="M298.818,238.596c-.06-1.526,.39-2.147,1.326-2.184,1.288-.051,2.212,.624,2.281,1.923,.061,1.15-.802,1.69-1.888,1.592-1.09-.098-1.607-.873-1.719-1.331Z" fill="#eaeaea"/>
    <path d="M214.173,266.191c-3.465,.699-4.657-.872-4.14-4.148,2.723,.042,3.935,1.593,4.14,4.148Z" fill="#ececec"/>
  </g>
  <g>
    <path d="M245.963,355.688c1.312,0,2.442,.149,3.391,.447s1.747,.686,2.397,1.163c.65,.477,1.172,1.017,1.565,1.619,.394,.602,.695,1.214,.903,1.833,.208,.621,.346,1.217,.412,1.789,.065,.573,.098,1.068,.098,1.485,0,.179-.015,.396-.044,.653s-.134,.504-.313,.742c-.179,.239-.462,.441-.85,.608s-.939,.25-1.655,.25c-.239,0-.537-.015-.895-.044-.358-.03-.704-.107-1.038-.232-.334-.126-.621-.305-.859-.537-.239-.232-.358-.558-.358-.976,0-.644-.039-1.222-.116-1.735-.078-.513-.218-.948-.42-1.306-.203-.357-.483-.632-.841-.823-.358-.19-.817-.286-1.378-.286-.584,0-1.035,.122-1.351,.367-.316,.244-.546,.51-.689,.796-.167,.346-.262,.733-.286,1.163v11.343c.024,.525,.119,.984,.286,1.378,.143,.346,.373,.661,.689,.948,.316,.286,.766,.429,1.351,.429,.561,0,1.02-.116,1.378-.349s.638-.546,.841-.939c.203-.394,.343-.847,.42-1.359s.116-1.05,.116-1.61c0-.179,.03-.363,.089-.555,.06-.19,.197-.366,.412-.527s.531-.296,.948-.403,.984-.16,1.7-.16,1.267,.08,1.655,.241,.671,.346,.85,.555c.179,.209,.283,.411,.313,.608,.03,.196,.044,.325,.044,.385,0,1.312-.221,2.483-.662,3.516-.441,1.031-1.064,1.905-1.87,2.621-.805,.715-1.766,1.261-2.88,1.637-1.116,.376-2.341,.563-3.677,.563-.215,0-.563-.018-1.047-.054-.483-.036-1.022-.131-1.619-.286-.596-.155-1.21-.388-1.843-.698-.632-.31-1.208-.742-1.727-1.297-.519-.555-.945-1.246-1.279-2.075-.334-.829-.501-1.84-.501-3.032v-9.983c0-.979,.119-1.843,.358-2.595,.238-.751,.551-1.404,.939-1.959s.832-1.02,1.333-1.396,1.014-.688,1.539-.939c1.217-.572,2.606-.9,4.168-.983Z" fill="#fff"/>
    <path d="M255.904,362.915c0-1.145,.167-2.12,.501-2.925,.333-.806,.76-1.477,1.279-2.013,.519-.537,1.092-.957,1.718-1.262,.626-.304,1.234-.533,1.825-.688,.591-.155,1.124-.251,1.602-.286,.477-.036,.829-.054,1.056-.054h.608c.227,0,.579,.018,1.056,.054,.477,.035,1.008,.131,1.592,.286s1.19,.385,1.816,.688c.626,.305,1.193,.725,1.7,1.262,.507,.536,.924,1.207,1.252,2.013,.328,.805,.492,1.78,.492,2.925v10.699c0,1.181-.164,2.183-.492,3.006-.328,.822-.746,1.509-1.252,2.058s-1.073,.98-1.7,1.297c-.626,.316-1.231,.552-1.816,.706-.584,.155-1.115,.251-1.592,.287-.477,.035-.829,.054-1.056,.054h-.608c-.227,0-.579-.019-1.056-.054-.478-.036-1.011-.132-1.602-.287-.59-.154-1.199-.39-1.825-.706s-1.199-.748-1.718-1.297c-.519-.549-.945-1.235-1.279-2.058-.334-.823-.501-1.825-.501-3.006v-10.699Zm5.939,11.379c.024,.441,.125,.829,.304,1.163,.155,.298,.391,.566,.707,.805,.316,.239,.766,.358,1.351,.358,.573,0,1.014-.119,1.324-.358,.31-.238,.542-.507,.698-.805,.167-.334,.268-.722,.304-1.163v-11.665c-.036-.43-.137-.816-.304-1.163-.155-.286-.388-.552-.698-.796-.311-.244-.751-.367-1.324-.367-.584,0-1.035,.123-1.351,.367-.316,.244-.552,.51-.707,.796-.179,.347-.28,.733-.304,1.163v11.665Z" fill="#fff"/>
    <path d="M284.594,355.83c.477,0,.96,.024,1.449,.072,.489,.048,.93,.16,1.324,.34,.394,.179,.715,.444,.966,.796s.376,.832,.376,1.44-.125,1.088-.376,1.44c-.25,.352-.572,.617-.966,.796-.394,.179-.835,.292-1.324,.34-.489,.048-.972,.071-1.449,.071h-4.258v4.651h2.254c.465,0,.942,.019,1.432,.054,.489,.036,.93,.138,1.324,.305s.718,.43,.975,.787c.256,.357,.385,.858,.385,1.503s-.125,1.145-.376,1.503c-.25,.357-.572,.62-.966,.787s-.835,.269-1.324,.304c-.489,.036-.972,.054-1.449,.054h-2.254v5.689c0,.525-.015,1.032-.045,1.521-.03,.488-.131,.927-.304,1.314s-.444,.698-.814,.931-.889,.349-1.557,.349c-.68,0-1.205-.116-1.574-.349-.37-.232-.638-.543-.805-.931s-.266-.826-.295-1.314c-.03-.489-.044-.996-.044-1.521v-16.817c0-.513,.015-1.014,.044-1.503s.128-.927,.295-1.314,.435-.701,.805-.939c.37-.238,.895-.358,1.574-.358h6.978Z" fill="#fff"/>
    <path d="M299.544,355.83c.478,0,.96,.024,1.449,.072s.931,.16,1.324,.34c.394,.179,.716,.444,.966,.796,.251,.352,.376,.832,.376,1.44s-.125,1.088-.376,1.44c-.25,.352-.572,.617-.966,.796s-.835,.292-1.324,.34-.972,.071-1.449,.071h-4.258v4.651h2.254c.465,0,.942,.019,1.432,.054,.489,.036,.93,.138,1.324,.305,.394,.167,.718,.43,.975,.787s.385,.858,.385,1.503-.125,1.145-.376,1.503c-.25,.357-.572,.62-.966,.787s-.835,.269-1.324,.304c-.489,.036-.972,.054-1.449,.054h-2.254v5.689c0,.525-.015,1.032-.045,1.521-.03,.488-.131,.927-.304,1.314s-.444,.698-.814,.931-.889,.349-1.557,.349c-.68,0-1.205-.116-1.574-.349-.37-.232-.638-.543-.805-.931s-.266-.826-.295-1.314c-.03-.489-.044-.996-.044-1.521v-16.817c0-.513,.015-1.014,.044-1.503s.128-.927,.295-1.314,.435-.701,.805-.939c.37-.238,.895-.358,1.574-.358h6.978Z" fill="#fff"/>
    <path d="M314.494,355.83c.477,0,.96,.019,1.45,.054,.488,.036,.93,.138,1.322,.305,.395,.167,.717,.42,.967,.76s.375,.814,.375,1.423-.125,1.082-.375,1.422-.572,.594-.967,.761c-.393,.167-.834,.269-1.322,.304-.49,.036-.974,.054-1.45,.054h-4.258v4.866h2.254c.477,0,.957,.016,1.44,.045,.482,.03,.912,.126,1.288,.286,.376,.161,.683,.406,.921,.734s.357,.784,.357,1.368c0,.597-.119,1.056-.357,1.378s-.545,.563-.921,.725-.806,.257-1.288,.286c-.483,.03-.964,.045-1.44,.045h-2.254v5.152h4.258c.477,0,.96,.018,1.45,.054,.488,.036,.93,.134,1.322,.295,.395,.161,.717,.412,.967,.752s.375,.808,.375,1.404c0,.62-.127,1.104-.385,1.449-.256,.346-.58,.603-.975,.77-.393,.167-.834,.268-1.324,.304-.488,.036-.966,.054-1.431,.054h-7.014c-.668,0-1.184-.119-1.548-.357-.363-.239-.629-.552-.796-.939s-.266-.826-.295-1.315c-.03-.488-.045-.989-.045-1.503v-16.817c0-.513,.015-1.014,.045-1.503,.029-.489,.128-.927,.295-1.314s.433-.701,.796-.939c.364-.238,.88-.358,1.548-.358h7.014Z" fill="#fff"/>
    <path d="M330.303,355.83c.477,0,.96,.019,1.449,.054,.488,.036,.93,.138,1.323,.305s.716,.42,.967,.76c.25,.34,.375,.814,.375,1.423s-.125,1.082-.375,1.422c-.251,.34-.573,.594-.967,.761s-.835,.269-1.323,.304c-.489,.036-.973,.054-1.449,.054h-4.259v4.866h2.255c.477,0,.957,.016,1.439,.045,.483,.03,.913,.126,1.289,.286,.375,.161,.683,.406,.921,.734s.357,.784,.357,1.368c0,.597-.119,1.056-.357,1.378s-.546,.563-.921,.725c-.376,.161-.806,.257-1.289,.286-.482,.03-.963,.045-1.439,.045h-2.255v5.152h4.259c.477,0,.96,.018,1.449,.054,.488,.036,.93,.134,1.323,.295s.716,.412,.967,.752c.25,.34,.375,.808,.375,1.404,0,.62-.128,1.104-.385,1.449-.256,.346-.581,.603-.975,.77s-.835,.268-1.324,.304-.966,.054-1.431,.054h-7.014c-.668,0-1.184-.119-1.548-.357-.363-.239-.629-.552-.796-.939s-.266-.826-.295-1.315c-.03-.488-.045-.989-.045-1.503v-16.817c0-.513,.015-1.014,.045-1.503,.029-.489,.128-.927,.295-1.314s.433-.701,.796-.939c.364-.238,.88-.358,1.548-.358h7.014Z" fill="#fff"/>
  </g>
  <g>
    <path d="M246.049,322.167c.698-.118,1.37-.139,2.016-.062,.646,.076,1.229,.256,1.749,.539,.52,.283,.955,.671,1.31,1.164,.354,.493,.59,1.096,.711,1.809,.061,.369,.069,.713,.021,1.03-.046,.319-.125,.612-.237,.882-.112,.269-.245,.509-.398,.72-.154,.212-.306,.396-.457,.556-.152,.158-.287,.286-.408,.383-.12,.098-.207,.158-.26,.183,.494,.055,.918,.158,1.275,.311,.356,.154,.664,.336,.921,.547,.257,.21,.469,.438,.635,.679,.166,.242,.299,.481,.399,.719,.101,.237,.175,.459,.221,.664,.047,.206,.082,.372,.102,.497,.103,.611,.119,1.163,.049,1.655-.069,.491-.197,.928-.382,1.311-.186,.382-.416,.72-.688,1.011-.274,.293-.558,.54-.854,.743-.707,.491-1.539,.841-2.496,1.052l-3.858,.651c-.446,.075-.805,.058-1.073-.055-.27-.111-.48-.285-.633-.521-.153-.236-.267-.514-.34-.831-.074-.318-.14-.65-.198-.995l-1.873-11.078c-.056-.338-.102-.668-.137-.993s-.018-.622,.05-.892c.066-.27,.208-.501,.426-.695,.217-.193,.549-.328,.997-.404l3.41-.576Zm-1.153,3.05l.675,3.999,1.506-.255c.334-.073,.622-.202,.865-.389,.1-.073,.197-.166,.292-.278,.093-.113,.172-.241,.237-.386,.064-.144,.106-.31,.126-.499,.021-.188,.011-.401-.028-.637-.045-.266-.112-.494-.201-.685-.089-.191-.19-.352-.305-.481-.115-.13-.238-.236-.369-.318-.13-.083-.26-.149-.39-.2-.308-.102-.641-.138-.999-.109l-1.411,.238Zm1.097,6.491l.748,4.423,1.716-.29c.366-.078,.681-.22,.944-.426,.114-.084,.222-.188,.322-.31,.101-.121,.185-.267,.253-.436,.068-.169,.113-.357,.134-.567,.021-.209,.009-.446-.036-.713-.049-.29-.122-.538-.217-.743-.096-.206-.206-.381-.33-.525-.125-.145-.26-.263-.405-.355-.145-.092-.285-.163-.423-.212-.333-.113-.696-.152-1.085-.119l-1.623,.273Z" fill="#fff"/>
    <path d="M253.253,323.745c-.04-.339-.061-.673-.062-1.001-.003-.328,.047-.626,.148-.894,.1-.268,.272-.494,.515-.678,.243-.185,.593-.304,1.051-.357,.458-.053,.829-.019,1.111,.105,.281,.123,.503,.304,.663,.541,.16,.237,.274,.517,.344,.837,.068,.319,.123,.649,.163,.989l1.085,9.336c.064,.345,.171,.645,.321,.899,.061,.113,.138,.22,.229,.321s.197,.189,.313,.264c.117,.074,.251,.129,.404,.163,.151,.034,.322,.041,.512,.019,.189-.021,.355-.067,.5-.136,.144-.068,.265-.152,.36-.252,.097-.1,.179-.209,.245-.329,.066-.12,.116-.242,.149-.366,.088-.281,.119-.598,.095-.947l-1.086-9.335c-.04-.341-.062-.674-.068-1.001-.006-.328,.042-.625,.143-.894,.1-.268,.272-.494,.515-.678,.242-.185,.597-.304,1.064-.358,.458-.054,.825-.019,1.104,.105s.498,.305,.658,.542c.159,.237,.275,.517,.349,.836s.13,.649,.169,.989l1.05,9.027c.096,.822,.047,1.556-.146,2.202-.194,.647-.509,1.207-.945,1.678-.438,.471-.982,.851-1.634,1.139-.65,.288-1.383,.479-2.196,.573-.821,.096-1.581,.074-2.277-.065-.696-.139-1.312-.389-1.846-.752-.534-.361-.97-.835-1.307-1.42-.336-.586-.55-1.277-.644-2.075l-1.05-9.028Z" fill="#fff"/>
    <path d="M273.22,319.12c.317-.021,.637-.03,.961-.028,.322,.002,.619,.05,.889,.144,.268,.093,.492,.247,.67,.463,.177,.215,.28,.524,.308,.93,.026,.396-.035,.713-.182,.95-.148,.237-.348,.42-.603,.549-.253,.129-.541,.218-.859,.267-.32,.05-.638,.086-.956,.107l-1.213,.081,.712,10.568c.023,.341,.035,.674,.038,1.001,.001,.327-.044,.621-.138,.882-.094,.262-.258,.479-.493,.649-.236,.171-.58,.272-1.033,.303-.452,.03-.806-.023-1.062-.162-.255-.138-.448-.33-.577-.576s-.213-.531-.255-.855c-.042-.323-.074-.656-.097-.998l-.713-10.567-1.214,.082c-.318,.021-.638,.029-.96,.023-.323-.007-.62-.056-.889-.149-.27-.094-.494-.248-.671-.463-.178-.215-.279-.521-.306-.918-.028-.404,.033-.726,.179-.962,.148-.237,.349-.42,.603-.549,.254-.129,.542-.217,.861-.262,.32-.046,.638-.078,.955-.101l6.045-.408Z" fill="#fff"/>
    <path d="M290.958,318.798c.318,.002,.641,.021,.967,.055,.325,.034,.619,.112,.88,.233,.262,.121,.476,.3,.64,.535,.166,.236,.247,.557,.244,.962-.002,.405-.088,.726-.258,.958-.168,.233-.385,.409-.648,.526-.263,.117-.558,.191-.884,.22-.326,.03-.648,.043-.967,.041l-2.839-.021-.023,3.101,1.504,.011c.309,.003,.627,.017,.953,.043s.62,.097,.882,.209c.261,.113,.477,.29,.645,.53,.169,.24,.252,.574,.249,1.004s-.089,.763-.257,1c-.169,.237-.385,.411-.648,.52-.264,.109-.558,.175-.884,.196-.327,.021-.649,.03-.967,.028l-1.503-.011-.028,3.792c-.003,.351-.015,.688-.038,1.015-.021,.325-.092,.617-.209,.875-.118,.258-.3,.462-.547,.615-.247,.154-.594,.229-1.04,.225-.453-.003-.803-.083-1.047-.239-.246-.157-.423-.365-.532-.625-.109-.259-.173-.552-.19-.878-.017-.326-.024-.664-.022-1.014l.084-11.212c.002-.342,.015-.676,.037-1.002,.022-.325,.09-.617,.204-.875,.112-.257,.294-.465,.541-.622,.248-.156,.598-.234,1.051-.23l4.652,.035Z" fill="#fff"/>
    <path d="M294.477,321.635c.014-.342,.045-.675,.095-.999,.049-.324,.144-.613,.286-.866s.347-.453,.616-.602c.269-.147,.634-.213,1.094-.194,.46,.02,.819,.113,1.075,.282,.256,.171,.444,.387,.565,.65s.192,.559,.214,.886,.026,.662,.012,1.004l-.455,11.202c-.014,.35-.043,.687-.088,1.011s-.139,.613-.281,.866-.349,.451-.621,.595c-.272,.145-.64,.207-1.101,.188-.459-.019-.818-.111-1.075-.276-.256-.166-.444-.38-.565-.644-.12-.264-.192-.56-.214-.887-.022-.327-.026-.665-.012-1.015l.456-11.202Z" fill="#fff"/>
    <path d="M300.667,321.845c.027-.34,.063-.673,.109-.996,.045-.323,.134-.607,.266-.852,.131-.246,.324-.436,.577-.571,.255-.135,.604-.185,1.048-.149l3.924,.312c.971,.125,1.826,.4,2.566,.826,.312,.185,.616,.406,.91,.664,.295,.26,.552,.571,.769,.935,.218,.365,.384,.787,.497,1.267,.114,.48,.146,1.028,.097,1.647-.01,.126-.035,.294-.075,.502-.041,.208-.111,.434-.21,.678-.099,.243-.226,.494-.383,.753-.156,.259-.355,.502-.597,.729-.241,.229-.531,.434-.868,.613-.338,.181-.729,.317-1.175,.409,.269,.134,.539,.3,.81,.501,.271,.201,.51,.449,.718,.745s.37,.644,.486,1.044c.115,.4,.152,.857,.111,1.373l-.134,1.688c-.008,.095,.01,.176,.052,.243,.043,.067,.086,.127,.13,.178,.175,.206,.273,.379,.294,.52,.021,.142,.027,.256,.021,.343-.022,.278-.097,.507-.222,.688-.127,.182-.284,.325-.472,.43-.188,.104-.396,.174-.627,.207s-.464,.041-.702,.022c-.261-.021-.523-.084-.786-.188-.264-.104-.499-.245-.708-.422-.21-.176-.374-.389-.495-.637-.119-.249-.165-.528-.142-.838l.2-2.521c.028-.349,.029-.671,.005-.969-.024-.297-.095-.558-.212-.782-.118-.225-.29-.406-.519-.544s-.534-.222-.914-.252l-1.331-.106-.316,3.972c-.027,.349-.065,.688-.111,1.021-.047,.33-.136,.621-.268,.87-.131,.248-.326,.439-.584,.575-.257,.135-.611,.185-1.064,.148-.443-.035-.78-.14-1.01-.313-.23-.174-.389-.394-.479-.66s-.132-.567-.126-.901c.006-.335,.023-.677,.052-1.025l.889-11.177Zm4.847,4.957c.397,.016,.763-.052,1.094-.2,.14-.062,.277-.142,.413-.242,.136-.102,.262-.23,.378-.389s.213-.347,.291-.563c.077-.218,.127-.473,.15-.766,.021-.262,.009-.496-.034-.703-.043-.206-.106-.389-.189-.548-.084-.157-.183-.293-.297-.406-.115-.112-.233-.205-.355-.278-.289-.176-.622-.29-1.001-.344l-1.712-.136-.354,4.446,1.616,.129Z" fill="#fff"/>
    <path d="M315.715,324.736c-.035,.333,.024,.643,.176,.931s.363,.57,.638,.845c.273,.275,.589,.551,.946,.825,.357,.273,.724,.561,1.099,.861,.374,.301,.736,.621,1.086,.962,.349,.342,.653,.717,.914,1.127s.455,.859,.586,1.35c.13,.489,.163,1.031,.104,1.625l-.013,.094c-.082,.647-.232,1.201-.452,1.662-.219,.461-.481,.849-.786,1.162s-.646,.562-1.021,.741c-.376,.181-.763,.313-1.163,.398-.399,.086-.799,.131-1.195,.137-.397,.005-.771-.011-1.119-.047l-.118-.016c-.67-.085-1.249-.228-1.737-.426s-.899-.434-1.232-.705c-.335-.271-.604-.567-.807-.891-.203-.322-.356-.648-.458-.978-.103-.33-.166-.652-.189-.968-.023-.316-.019-.608,.016-.877,.035-.275,.113-.51,.234-.703s.267-.345,.437-.455c.171-.11,.36-.185,.57-.222,.209-.038,.424-.042,.646-.014,.204,.025,.41,.084,.62,.176,.209,.091,.395,.212,.555,.364,.161,.153,.286,.337,.374,.554,.089,.216,.12,.458,.095,.727-.061,.595,.022,1.016,.246,1.265,.225,.249,.574,.404,1.047,.464,.238,.023,.461,.021,.669-.004s.391-.095,.549-.207c.159-.112,.293-.271,.403-.478,.111-.207,.188-.475,.23-.807,.052-.41,.006-.792-.137-1.147-.144-.355-.347-.693-.609-1.016-.264-.322-.573-.636-.926-.941-.354-.307-.716-.613-1.085-.921-.37-.308-.728-.626-1.075-.954-.347-.329-.653-.679-.917-1.05-.266-.37-.466-.769-.6-1.194-.135-.426-.172-.896-.114-1.41l.023-.189c.115-.843,.318-1.53,.607-2.062,.288-.532,.663-.937,1.128-1.215,.465-.276,1.013-.445,1.646-.505,.634-.06,1.349-.038,2.145,.063l.308,.04c.726,.092,1.332,.25,1.815,.472,.485,.222,.879,.477,1.184,.765,.304,.287,.532,.597,.686,.929,.154,.333,.26,.654,.315,.967,.058,.312,.081,.599,.071,.862s-.024,.474-.045,.632c-.029,.236-.104,.445-.219,.627-.115,.183-.258,.33-.429,.444s-.365,.195-.584,.244c-.219,.048-.45,.057-.695,.025-.189-.024-.374-.086-.554-.185-.18-.1-.336-.218-.471-.354-.136-.138-.24-.29-.315-.456s-.103-.327-.082-.485c.082-.646,.023-1.11-.177-1.393s-.525-.452-.976-.51c-.213-.027-.421-.042-.625-.044s-.391,.04-.557,.127c-.168,.087-.312,.235-.431,.444-.118,.209-.204,.516-.255,.917Z" fill="#fff"/>
    <path d="M331.036,322.827c.312,.054,.626,.12,.939,.198,.312,.078,.59,.194,.829,.349,.24,.154,.421,.356,.544,.608,.121,.251,.148,.576,.079,.976-.067,.392-.2,.686-.399,.881-.2,.196-.438,.326-.715,.392s-.577,.084-.899,.057c-.322-.026-.64-.067-.954-.122l-1.198-.206-1.797,10.438c-.059,.337-.124,.664-.199,.982s-.189,.593-.342,.824c-.154,.232-.364,.403-.634,.515-.27,.11-.627,.128-1.073,.051s-.779-.213-.996-.407-.358-.427-.424-.696c-.067-.271-.083-.566-.047-.892,.035-.325,.083-.656,.141-.992l1.798-10.438-1.199-.207c-.313-.054-.627-.122-.938-.204-.313-.082-.589-.2-.829-.354-.239-.154-.421-.357-.543-.608-.123-.251-.15-.572-.083-.964,.069-.399,.203-.697,.403-.893,.198-.195,.437-.326,.714-.392,.278-.065,.577-.082,.898-.052,.321,.031,.639,.074,.953,.128l5.972,1.028Z" fill="#fff"/>
  </g>
</svg>